<svg width="1000" height="1000" viewBox="0 0 1000 1000" fill="none" xmlns="http://www.w3.org/2000/svg">
<g clip-path="url(#clip0_101_2337)">
<path d="M212 922.401C215.106 853.552 268.173 706.344 294.318 641.733C362.036 628.087 436.432 682.567 465.166 711.513L423.23 979L364.987 809.204C322.533 832.98 232.502 888.907 212 922.401Z" fill="#0DB163"/>
<path d="M576.217 977.449L535.834 712.288C566.121 683.084 642.847 627.932 707.459 640.958C734.639 715.131 789 875.106 789 921.626C770.983 888.752 677.949 832.98 633.684 809.204L576.217 977.449Z" fill="#0DB163"/>
<g filter="url(#filter0_d_101_2337)">
<path d="M198.324 264.165L161.085 296.727L179.705 345.572L151 386.663L179.705 429.305L163.413 477.374L202.203 509.937L199.876 561.107L244.872 584.366L254.182 632.435L304.609 642.514L327.108 689.032L379.087 685.931L410.895 723.146L459.77 706.864L501.664 734L543.557 706.864L591.657 723.146L625.792 683.605L674.668 689.032L698.718 640.963L747.594 631.66L758.455 583.591L802.676 560.331L799.573 509.161L836.036 475.048L820.519 427.754L850 385.112L820.519 341.695L838.363 294.402L799.573 261.839L801.9 210.669L756.128 188.185L746.042 139.34L695.615 128.486L673.892 84.2937L623.465 85.8443L587.778 49.4049L541.23 65.6863L500.112 37L455.115 65.6863L409.343 49.4049L374.432 87.3949L324.004 84.2937L299.954 130.812L251.855 139.34L241.769 189.735L198.324 211.444V264.165Z" fill="#212121"/>
</g>
<path d="M499.5 202C398.76 202 317 283.76 317 384.5C317 485.24 398.76 567 499.5 567C600.24 567 682 485.24 682 384.5C682 283.76 600.24 202 499.5 202ZM463 475.75L371.75 384.5L397.482 358.768L463 424.103L601.518 285.585L627.25 311.5L463 475.75Z" fill="#15D277"/>
</g>
<defs>
<filter id="filter0_d_101_2337" x="147" y="37" width="707" height="705" filterUnits="userSpaceOnUse" color-interpolation-filters="sRGB">
<feFlood flood-opacity="0" result="BackgroundImageFix"/>
<feColorMatrix in="SourceAlpha" type="matrix" values="0 0 0 0 0 0 0 0 0 0 0 0 0 0 0 0 0 0 127 0" result="hardAlpha"/>
<feOffset dy="4"/>
<feGaussianBlur stdDeviation="2"/>
<feComposite in2="hardAlpha" operator="out"/>
<feColorMatrix type="matrix" values="0 0 0 0 0 0 0 0 0 0 0 0 0 0 0 0 0 0 0.25 0"/>
<feBlend mode="normal" in2="BackgroundImageFix" result="effect1_dropShadow_101_2337"/>
<feBlend mode="normal" in="SourceGraphic" in2="effect1_dropShadow_101_2337" result="shape"/>
</filter>
<clipPath id="clip0_101_2337">
<rect width="1000" height="1000" fill="white"/>
</clipPath>
</defs>
</svg>
